<?xml version="1.0" standalone="no"?>
<!DOCTYPE svg PUBLIC "-//W3C//DTD SVG 20010904//EN"
 "http://www.w3.org/TR/2001/REC-SVG-20010904/DTD/svg10.dtd">
<svg version="1.0" xmlns="http://www.w3.org/2000/svg"
 width="256.000000pt" height="256.000000pt" viewBox="0 0 256.000000 256.000000"
 preserveAspectRatio="xMidYMid meet">

<g transform="translate(0.000000,256.000000) scale(0.100000,-0.100000)"
fill="#000000" stroke="none">
<path d="M415 1729 c-260 -90 -385 -380 -269 -626 58 -122 197 -228 333 -253
32 -6 323 -10 732 -10 660 0 679 1 689 19 5 11 10 36 10 55 l0 36 264 0 c227
0 267 2 280 16 14 13 16 58 16 333 0 233 -3 320 -12 329 -9 9 -85 12 -280 12
l-268 0 0 39 c0 78 69 71 -724 71 -690 -1 -713 -1 -771 -21z m1425 -434 l0
-386 -682 3 -683 3 -67 32 c-84 39 -155 109 -194 188 -26 54 -29 70 -29 160 0
88 3 107 27 157 46 100 146 187 248 219 14 4 330 8 703 8 l677 1 0 -385z m170
0 l0 -275 -50 0 -50 0 0 275 0 275 50 0 50 0 0 -275z m390 0 l0 -275 -165 0
-165 0 0 275 0 275 165 0 165 0 0 -275z"/>
<path d="M483 1539 c-60 -11 -95 -32 -141 -84 -137 -156 -25 -405 183 -404
145 0 250 105 249 249 -1 156 -137 267 -291 239z m146 -93 c113 -78 102 -244
-20 -306 -166 -85 -337 118 -224 266 58 76 167 93 244 40z"/>
<path d="M1326 1128 c-20 -28 -20 -62 -1 -78 20 -16 19 -27 -5 -57 -22 -28
-18 -43 10 -43 19 0 60 48 60 70 0 7 -9 24 -20 40 -19 27 -19 27 0 45 11 10
20 24 20 32 0 22 -47 15 -64 -9z"/>
<path d="M1432 1138 c-7 -7 -12 -16 -12 -21 0 -5 -10 -17 -22 -27 -21 -17 -21
-19 -5 -25 12 -5 17 -18 17 -49 0 -49 13 -66 52 -66 21 0 28 5 28 20 0 13 -7
20 -20 20 -29 0 -27 54 3 75 21 15 21 17 5 29 -10 7 -18 20 -18 29 0 21 -14
29 -28 15z"/>
<path d="M1730 1124 c-6 -15 -10 -59 -8 -98 2 -55 6 -71 18 -71 9 0 16 11 18
28 4 35 13 34 35 -5 13 -23 21 -28 29 -20 9 9 8 20 -4 46 -14 29 -15 36 -3 52
30 39 9 60 -27 27 -17 -15 -18 -15 -18 14 0 17 -7 36 -15 43 -12 10 -16 7 -25
-16z"/>
<path d="M1034 1125 c-12 -30 1 -145 18 -161 15 -15 18 -13 37 22 11 22 20 32
21 23 0 -9 8 -27 19 -40 18 -22 19 -22 29 -3 15 28 33 139 26 158 -14 36 -43
12 -45 -37 -1 -17 -4 -14 -11 11 -13 39 -33 42 -43 5 l-8 -28 -9 33 c-9 34
-25 42 -34 17z"/>
<path d="M1216 1094 c-35 -34 -31 -104 6 -128 25 -15 73 4 73 29 0 20 -5 22
-40 10 -15 -5 -13 -1 8 15 15 12 27 32 27 44 0 43 -44 61 -74 30z m39 -34 c-3
-5 -11 -10 -16 -10 -6 0 -7 5 -4 10 3 6 11 10 16 10 6 0 7 -4 4 -10z"/>
<path d="M1631 1084 c-39 -50 -19 -134 32 -134 22 0 50 41 37 54 -7 7 -14 6
-22 -2 -19 -19 -28 -14 -28 17 0 34 15 49 24 25 5 -13 9 -14 21 -4 19 16 19
35 -1 54 -22 23 -40 20 -63 -10z"/>
<path d="M1504 1064 c-12 -28 -13 -43 -4 -70 24 -72 100 -47 100 33 0 51 -16
73 -51 73 -25 0 -33 -6 -45 -36z m56 -39 c0 -19 -4 -35 -9 -35 -12 0 -19 29
-13 53 7 30 22 18 22 -18z"/>
<path d="M2153 1434 c-18 -8 -16 -51 3 -58 23 -9 77 -7 92 3 8 4 12 19 10 32
-3 21 -9 24 -48 26 -25 1 -51 0 -57 -3z"/>
<path d="M2144 1206 c-11 -28 3 -43 41 -48 43 -5 69 10 63 38 -4 26 -95 34
-104 10z"/>
</g>
</svg>
